<?xml version="1.0" encoding="utf-8"?>
<!-- Generator: Adobe Illustrator 19.1.0, SVG Export Plug-In . SVG Version: 6.00 Build 0)  -->
<svg version="1.1" xmlns="http://www.w3.org/2000/svg" xmlns:xlink="http://www.w3.org/1999/xlink" x="0px" y="0px"
	 viewBox="248 -248 512 512" style="enable-background:new 248 -248 512 512;" xml:space="preserve">
<style type="text/css">
	.st0{display:none;}
	.st1{display:inline;}
	.st2{fill:#4A4A4A;stroke:#4A4A4A;}
	.st3{fill:none;stroke:#4A4A4A;stroke-width:41.4662;stroke-miterlimit:10;}
</style>
<g id="Layer_2">
	<polygon style="fill:#4A4A4A" points="302.4,-111 317.3,-98.8 315.5,-75.1 338,-15.7 433.4,59.5 451.4,60.5 428.8,106 478.3,234.4 576.7,156.7 
		583.2,122.5 438.9,55.4 429.6,39.3 417.2,30.7 411.9,7 387,17.9 398.2,-21 427.5,-24.9 444.3,-6.1 449.9,-39.2 477.5,-77.2 
		504.3,-86.7 506.4,-100.9 496.3,-111.6 527.6,-116.7 529.9,-132.1 509,-153.7 489.4,-151.1 467.3,-162.1 453.4,-118.5 
		413.5,-142.7 451.9,-182.9 373.1,-166.7 302.4,-111 307.5,-119.1 302.4,-111 302.4,-111 302.4,-111 	"/>
	<polygon style="fill:#4A4A4A" points="670.7,-60.9 686.5,42.2 712.3,69.2 699.4,137.3 739.2,-26.7 703.8,-66.2 677,-66.8 693.9,-89.6 715.6,-62.2 
		718.7,-70.1 729.8,-52.5 692.4,-127.8 681.1,-98.6 664.9,-95.3 670.7,-60.9 670.7,-60.9 670.7,-60.9 	"/>
	<polygon style="fill:#4A4A4A" points="592.2,-208.5 607.5,-195.8 581.1,-177.4 576.8,-161.9 558.4,-166.8 498.5,-219.4 528,-225.6 592.2,-208.5 
		584.3,-212.7 592.2,-208.5 592.2,-208.5 592.2,-208.5 	"/>
	<circle class="st3" cx="504" cy="8" r="233.8"/>
</g>
</svg>
